# xmcd CD database file
#
# Track frame offsets:
#	150
#	12652
#	23479
#	39187
#	55180
#	65580
#	77129
#	89416
#	101207
#	109555
#	121180
#	132824
#	146155
#	157924
#	169052
#
# Disc length: 2474 seconds
#
# Revision: 1
# Processed by: cddbd v1.5.1PL2 Copyright (c) Steve Scherf et al.
# Submitted via: CDex 1.51
#
DISCID=be09a80f
DTITLE=Johnny Cash - I Walk the Line [CD1]
DYEAR=2006
DGENRE=Country
TTITLE0=Ring Of Fire
TTITLE1=Big River
TTITLE2=A Boy Named Sue
TTITLE3=The City Of New Orleans
TTITLE4=The Rock Island Line
TTITLE5=Highwayman
TTITLE6=The Long Black Veil
TTITLE7=Folsom Prison Blues
TTITLE8=I Got Stripes
TTITLE9=I Still Miss Someone
TTITLE10=Without Love
TTITLE11=Any Old Wind That Blows
TTITLE12=Forty Shades Of Green
TTITLE13=The Fourth Man
TTITLE14=Will The Circle Be Unbroken
EXTD=YEAR: 2006
EXTT0=
EXTT1=
EXTT2=
EXTT3=
EXTT4=
EXTT5=
EXTT6=
EXTT7=
EXTT8=
EXTT9=
EXTT10=
EXTT11=
EXTT12=
EXTT13=
EXTT14=
PLAYORDER=
